<svg width="16" height="16" viewBox="0 0 16 16" fill="none" xmlns="http://www.w3.org/2000/svg">
<path d="M6.87402 15.3006L0.274024 8.70057C0.174024 8.60057 0.103023 8.49224 0.0610232 8.37557C0.0196899 8.2589 -0.000976562 8.1339 -0.000976562 8.00057C-0.000976562 7.86724 0.0196899 7.74224 0.0610232 7.62557C0.103023 7.5089 0.174024 7.40057 0.274024 7.30057L6.87402 0.700571C7.05736 0.517237 7.28636 0.421238 7.56102 0.412571C7.83636 0.404571 8.07402 0.500571 8.27402 0.700571C8.47402 0.883904 8.57836 1.1129 8.58702 1.38757C8.59502 1.6629 8.49902 1.90057 8.29902 2.10057L3.39902 7.00057H14.574C14.8574 7.00057 15.095 7.09624 15.287 7.28757C15.4784 7.47957 15.574 7.71724 15.574 8.00057C15.574 8.2839 15.4784 8.52124 15.287 8.71257C15.095 8.90457 14.8574 9.00057 14.574 9.00057H3.39902L8.29902 13.9006C8.48236 14.0839 8.57836 14.3172 8.58702 14.6006C8.59502 14.8839 8.49902 15.1172 8.29902 15.3006C8.11569 15.5006 7.88236 15.6006 7.59902 15.6006C7.31569 15.6006 7.07402 15.5006 6.87402 15.3006Z" fill="white"/>
</svg>
